<?xml version="1.0" encoding="iso-8859-1"?>
<!-- Generator: Adobe Illustrator 19.0.0, SVG Export Plug-In . SVG Version: 6.00 Build 0)  -->
<svg version="1.1" id="Capa_1" xmlns="http://www.w3.org/2000/svg" xmlns:xlink="http://www.w3.org/1999/xlink" x="0px" y="0px"
	 viewBox="0 0 512 512" style="enable-background:new 0 0 512 512;" xml:space="preserve">
<g>
	<g fill="#36b729">
		<path d="M467,0H316c-24.813,0-45,20.187-45,45v15h-30V45c0-24.813-20.187-45-45-45H45C20.187,0,0,20.187,0,45v180
			c0,24.813,20.187,45,45,45h15v45c0,6.085,3.676,11.567,9.306,13.877c5.634,2.311,12.1,0.986,16.371-3.342L121,289.739V345
			c0,24.813,20.187,45,45,45h41.972l35.547,53.32c2.782,4.173,7.466,6.68,12.481,6.68s9.699-2.506,12.481-6.68L304.028,390H346
			c24.813,0,45-20.187,45-45v-55.261l35.323,35.797c4.275,4.334,10.744,5.65,16.371,3.342c5.63-2.31,9.306-7.792,9.306-13.877v-45
			h15c24.813,0,45-20.187,45-45V45C512,20.187,491.813,0,467,0z M121,105v142.028l-31,31.415V255c0-8.284-6.716-15-15-15H45
			c-8.271,0-15-6.729-15-15V45c0-8.271,6.729-15,15-15h151c8.271,0,15,6.729,15,15v15h-45C141.187,60,121,80.187,121,105z M301,360
			c-4.907,0-12.45-0.867-17.481,6.68L256,407.958l-27.519-41.279C223.452,359.136,215.917,360,211,360v-75c0-24.813,20.187-45,45-45
			s45,20.187,45,45V360z M226,180c0-16.542,13.458-30,30-30s30,13.458,30,30s-13.458,30-30,30S226,196.542,226,180z M361,345
			c0,8.271-6.729,15-15,15h-15v-75c0-25.831-13.127-48.653-33.06-62.148C309.073,211.953,316,196.773,316,180
			c0-33.084-26.916-60-60-60s-60,26.916-60,60c0,16.773,6.927,31.953,18.06,42.852C194.127,236.347,181,259.169,181,285v75h-15
			c-8.271,0-15-6.729-15-15V105c0-8.271,6.729-15,15-15h180c8.271,0,15,6.729,15,15V345z M482,225c0,8.271-6.729,15-15,15h-30
			c-8.284,0-15,6.716-15,15v23.443l-31-31.415V105c0-24.813-20.187-45-45-45h-45V45c0-8.271,6.729-15,15-15h151
			c8.271,0,15,6.729,15,15V225z"/>
	</g>
</g>
<g>
	<g fill="#36b729">
		<path d="M497,482H15c-8.284,0-15,6.716-15,15s6.716,15,15,15h482c8.284,0,15-6.716,15-15S505.284,482,497,482z"/>
	</g>
</g>
<g>
</g>
<g>
</g>
<g>
</g>
<g>
</g>
<g>
</g>
<g>
</g>
<g>
</g>
<g>
</g>
<g>
</g>
<g>
</g>
<g>
</g>
<g>
</g>
<g>
</g>
<g>
</g>
<g>
</g>
</svg>
